<svg xmlns="http://www.w3.org/2000/svg" viewBox="0 0 24 24">
    <g>
        <path d="M0,4.8C0,2.1,2.1,0,4.8,0l0,0h14.4C21.9,0,24,2.1,24,4.8v14.4c0,2.7-2.1,4.8-4.8,4.8H4.8C2.1,24,0,21.9,0,19.2V4.8z M4.8,2.4c-1.3,0-2.4,1.1-2.4,2.4l0,0v14.4c0,1.3,1.1,2.4,2.4,2.4h14.4c1.3,0,2.4-1.1,2.4-2.4V4.8c0-1.3-1.1-2.4-2.4-2.4H4.8z"/>
    </g>
    <g>
        <path d="M12.7,16.4c0.4,0,0.5-0.3,0.5-0.6c0-1.2,0.5-1.9,1.3-1c0.9,0.9,1.1,1.6,2.3,1.6h2c0.5,0,0.7-0.2,0.7-0.4 c0-0.5-0.9-1.5-1.7-2.2c-1.1-1-1.1-1-0.2-2.2c1.1-1.5,2.6-3.4,1.3-3.4h-2.5c-0.5,0-0.5,0.3-0.7,0.7c-0.6,1.5-1.8,3.4-2.3,3.1 c-0.5-0.3-0.3-1.5-0.2-3.3c0-0.5,0-0.8-0.7-1c-0.4-0.1-0.8-0.1-1.1-0.1C10,7.6,9,8.2,9.6,8.3c1,0.2,0.9,2.3,0.7,3.3 c-0.4,1.6-1.9-1.3-2.5-2.7C7.6,8.5,7.5,8.2,7,8.2H4.9c-0.3,0-0.5,0.1-0.5,0.3c0,0.4,1.9,4.2,3.7,6.2C9.8,16.6,11.5,16.4,12.7,16.4z "/>
    </g>
</svg>
